<svg version="1" xmlns="http://www.w3.org/2000/svg" width="382.667" height="382.667" viewBox="0 0 287.000000 287.000000"><path d="M17.4 70.2c-.7 1.1 1.6 3.9 2.6 3.3 1.2-.8 2 2.5 1.4 6-.6 3.9-1.6 12.7-1.6 14 .4 12 .3 25.6-.2 26.3-.7 1.1-.9 72.8-.3 74 .2.4.3 1.5.2 2.4-.2 1 0 1.8.4 1.8.3 0 .5 1.7.4 3.8-.5 6 1.2 7.3 10.1 7.5 7.7.2 9 .8 5.9 2.6-1 .6-1.3 1.1-.7 1.1.6 0 1.7-.6 2.3-1.4 1.9-2.2 5.1-2.7 5.2-.8 0 1.4.2 1.3.9-.3.5-1.1.9-1.5.9-.8.1 1.2 3.9 1.2 6-.1 2-1.3 2.6.3.7 1.7-1.6 1.2-1.6 1.3.3 1.3 1.1 0 1.8-.3 1.6-.7-.3-.3.7-1.1 2.1-1.8 3.2-1.4 4.1-1.4 2.6.1-.7.7-1.2 1.7-1.2 2.3 0 .5.4.4.9-.3.4-.7 1.4-1.4 2.2-1.5.8-.2 2-.6 2.7-1 1.6-1 1.6.5 0 2.3-.7.7 0 .4 1.6-.9 1.9-1.3 3.3-1.8 3.9-1.2.5.5 1.6.7 2.5.4 1.1-.5 1.3-.2.8.8-.4.8-.1.6.6-.3.9-1.1 1.9-1.4 2.8-.8.8.5 2.2.4 3.3-.2 1-.5 2-.8 2.1-.6.2.2.9 1.2 1.5 2.3.8 1.3 1.1 1.4.7.3-.3-1 .2-1.8 1.5-2.1 1.6-.4 1.9-.1 1.5 1.6-.3 1.2-.3 1.6 0 .9.5-1 .9-1 2.2 0 1.5 1.1 1.5 1.1.5-.3-1.8-2.2-.4-3.2 1.6-1.1.9 1 1.3 1.3.8.6-.5-.7 0-1.4 1.3-1.7 1.7-.4 2-.2 1.5 1.6-.4 1.2-.3 1.7.2 1.2.4-.6 1.5-1.1 2.3-1.3.8-.2 1.7-.8 1.8-1.3.2-.5 1.2-.1 2.2 1.1 1.5 1.8 1.9 1.8 2.4.5.3-.9.2-1.3-.4-1-.6.3-1 .2-1-.2 0-.5 2-.9 4.5-.8 4.8 0 5.6.8 2.8 2.4-1 .6-1.3 1-.8 1 1.3 0 4.6-2.5 4-3-.2-.3 1.7-.4 4.3-.4 3.3.1 4.6.5 4.4 1.4-.1.7.2 1 .8.6.6-.3.8-1.1.5-1.6-.4-.5 2-.9 5.5-.9 3.4 0 5.9.4 5.6.9-.4.5.2.8 1.1.7.9-.2 1.9-.8 2.1-1.4.2-.6.9-.9 1.6-.6.7.3 1.9-.3 2.7-1.2.8-1 .9-1.5.3-1.1-.6.3-1.1 0-1.1-.8s.4-1.2.8-.9c.4.2.7-2.3.6-5.6-.1-4.2.2-6 1.1-6 .6 0 1.2-.5 1.2-1.1 0-.5-.4-.8-.9-.5-.5.4-1.1-1.8-1.3-4.8-.3-4.9-.1-5.5 1.6-5.3 1 .1 2.1-.5 2.3-1.3.4-1.2.3-1.3-.5-.1-.5.7-1.5 1.1-2.1.7-1.3-.9-1.2-7.7.3-9.5.8-1.1.8-1.3-.1-.8-1.5 1-1.5-5.2.1-7.2.8-1.1.8-1.3-.1-.8-.8.5-1.1-1.4-1.2-6.8 0-4.8.3-7.4.9-7 .6.3 1 .2 1-.3 0-.6-.6-1.2-1.4-1.5-.8-.3-1.2-1.6-1.1-3.1.2-1.4-.1-2.6-.6-2.6s-.8-.5-.6-1.1c.1-.6-.7-1.3-1.8-1.6-3.4-.7-9.5-.9-9.5-.2 0 1-52.4.9-55.8 0-2.4-.7-3.4-.5-5.1 1-2.1 2-2.5 3.5-2.2 10.3.1 2.1-.4 4.6-1.1 5.5-.7.9-.9 1.3-.5 1 1.1-.9 5.5 3.3 4.8 4.6-.3.5.3.4 1.2-.4 1.3-1 1.7-1 1.7-.1 0 .7.7 1 1.5.6.9-.3 1.8.1 2.1.9.4.8 1 1.5 1.5 1.5.4 0 .6-.7.3-1.5-.5-1.1-.2-1.3 1-.9.9.3 1.4.9 1.1 1.3-.2.4.2.8 1 .8s1.2-.4.9-.9c-.3-.4.4-.8 1.5-.8 1.2 0 2.1.6 2.1 1.2 0 1 .2 1 .8.2 1-1.6 13.4-1.7 14.4-.1.6.9.8.9.8-.1 0-1.4 3.6-1.6 4.5-.2.3.5 0 .7-.8.4-.8-.3-2 .3-2.7 1.3-1.2 1.5-1.2 1.6 0 .5 1.8-1.6 3.3-1.6 2.4 0-.4.7.2.4 1.4-.6 1.2-1.1 2.5-1.6 2.9-1.3.3.4 1.3.1 2.1-.6 1.3-1 1.4-.9.4 1-.7 1.2-1.2 3.9-1.2 6.1 0 2.2-.6 4.4-1.3 5-.6.6-4.1 1.2-7.7 1.5-3.6.3-6.7.6-7 .7-.6.2-8.5 0-17-.5-3.6-.2-9.7-.4-13.6-.5l-7.2-.3v-3.3c0-1.9.4-3.7.9-4 1.2-.7 1.1-2.4-.2-2.4-.5 0-.7.6-.3 1.2.4.7.3 1-.1.5-1.4-1.2-1.4-4.8 0-3.7.8.7 1.2.5 1.2-.5 0-.8-.4-1.5-.9-1.5s-.6-.6-.1-1.3c1.1-1.8 1.3-3.8.2-3.1-1.4.8-1.1-2 .4-3.5 1-1.1.9-1.3-.3-.9-1.1.4-1.6-.1-1.6-1.3 0-1.1.7-1.9 1.6-2 1 0 1.1-.2.3-.6-.7-.2-1.3-.9-1.3-1.4 0-.6.5-.7 1.2-.3.7.4.8.3.4-.4s-.2-1.2.3-1.2c.6 0 1.1-.8 1.1-1.8-.1-1.6-.1-1.6-1.1 0-1.5 2.6-2.7 2.2-2.1-.7.2-1.4.8-2.2 1.3-1.9.5.3.9 0 .9-.5 0-.6-.4-1.1-.9-1.1-1.3 0-1.1-6.3.3-7.2.7-.5.3-.8-.9-.9-1.7-.1-1.6-.2.5-.9 1.7-.5 1.9-.8.8-.9-1-.1-1.8-.8-1.8-1.7 0-.8.4-1.3.8-1 .4.2.8-.6.8-1.9 0-1.3-.3-2.2-.7-1.9-1 .6-1.6-1.7-1.1-4.4.4-2.2.5-2.2 2.3-.6 1.1 1 1.9 1.2 1.9.6 0-.7-.4-1.2-1-1.2-.5 0-1-.7-1-1.6 0-.8-.4-1.3-.8-1-.5.3-.9-.1-.9-.9 0-.9.5-1.1 1.1-.7.6.5 2.5.7 4.1.7 1.7-.1 3.6.3 4.4.9 1.1.8 1.3.8.8 0-.4-.7.2-1.2 1.8-1.2 1.4 0 2.2.5 1.8 1.1-.4.6-.1.7.8.1 2.3-1.4 6.2-1.7 5.3-.3-.5.8-.3.9.7.3 2.3-1.4 5.1-1.5 6.7-.2 1.2 1 1.4 1 .8 0-.4-.7-.1-1.2.9-1.2s1.3.5.9 1.2c-.5.8 0 .7 1.1-.2 1.7-1.4 1.8-1.3 1.2.5-.6 1.7-.5 1.8.5.4 1-1.2 3-1.6 8.1-1.5 3.7 0 6.7.4 6.7.9 0 .4.5.5 1.2.1.8-.5.9-.1.5 1.2-.7 1.8-.7 1.8.8 0 .8-1.1 1.5-1.4 1.5-.7s.4 1 .9.6c.5-.3 1.2-.1 1.6.5.3.5.1 1-.6 1s-.9.3-.6.7c.4.3.2 1.2-.4 1.9-.6.7-.6 1.4 0 1.8 1 .6.3 4.6-.8 4.6-.3 0-.6 1-.6 2.3 0 1.6.6 2.4 2 2.5 1.1 0 2.1.6 2.3 1.2.2.5.8.7 1.3.4 1.4-.8 4 1.6 3.2 3-.3.6 0 .5.8-.3 1.1-1 1.1-1.5.2-1.8-.7-.3-1.3-.9-1.3-1.4 0-.6.8-.5 2 .1 1.1.6 1.7 1.6 1.4 2.2-.4.7-.3.8.5.4.6-.4.8-1.2.5-1.8-.5-.8.3-.9 2.5-.5 2.4.5 3 .4 2.5-.6-.6-.9-.4-.9.7-.1 2.2 1.7 5.1 2.6 4.3 1.3-.4-.7-.1-1 .7-.7.8.3 1.3 1.6 1.2 2.9-.2 2.2-.2 2.2.6.4.4-1.1.7-2.5.6-3-.1-.6 0-.7.2-.3.3.5 1.1.8 1.9.8.9 0 1.2.4.9 1-.3.5-.1 1 .4 1 .6 0 1.1-.6 1.1-1.4 0-.9.7-1.2 1.9-.9 1 .3 2.2 0 2.5-.6.5-.7.1-.8-.9-.4-1.5.5-1.5.3-.4-1.5.7-1.1 1.7-1.8 2.1-1.6.4.3.8 0 .8-.5 0-.6-.6-1.1-1.2-1.2-.7 0-.4-.4.7-.9 1.8-.8 1.8-.9.2-.9-1-.1-1.5-.6-1.2-1.2.4-.6 1.4-.8 2.2-.5.8.4 1.1.1.8-.5-.4-.6-1.3-.8-2.1-.5-.8.3-1.4.1-1.4-.4 0-.6.5-1 1.2-1 .9 0 .9-.3 0-1.2-.7-.7-.8-1.7-.1-3 .5-1 .6-1.8.2-1.9-.4 0 .1-.4 1.2-.9 1.8-.8 1.8-.9-.5-.9-2-.1-2.2-.3-1-1.1.8-.5 1-1 .4-1s-1.1-1.1-1.1-2.5c0-1.3.3-2.2.8-1.9.5.3.9 0 .9-.5 0-.6-.4-1.1-1-1.1-1.8 0-1.1-3.5 1-4.8 1.1-.7 2-1.8 2-2.5 0-.6-.5-.4-1.1.5-.5 1-1.5 1.8-2 1.8-.6 0-.7-.5-.3-1.1 1-1.7 1.2-12.9.2-12.3-.4.3-.4-.6.2-2 .6-1.6.6-2.7-.1-3.1-.5-.4-.7-1.1-.4-1.6.4-.5-1.8-.8-5.2-.5-3.3.2-6.4-.2-7.2-.8-1.1-.8-1.3-.8-.7.1.4.7.2 1.3-.3 1.3-.6 0-1.1-.8-1.2-1.8 0-1-.3-1.2-.6-.5-.2.7-1.1 1.3-1.8 1.3s-1.6-.6-1.8-1.3c-.4-.9-.6-.8-.6.2-.1 1.1-.4 1.1-1.8 0-.9-.8-1.4-1-1.1-.4.4.6-1.8 1-5.7 1-4.1 0-6.1-.3-5.7-1 .4-.7.1-.7-.9 0-.8.6-4 1.1-7.1 1-3.2 0-5.8.3-5.8.7 0 .8-2.1.5-3.9-.6-.9-.6-1.2-.5-.8.1.9 1.4-5.6 1.2-6.5-.2-.5-.7-.8-.7-.8 0 0 1-1.5 1.1-9.8.6-1.3 0-2-.6-1.7-1.1.4-.6-.3-.8-1.7-.6-1.3.3-2.3.5-2.3.6 0 .9-11.5 1.9-13 1.1-1.7-.9-3.5-1-3-.1.2.4-.6.7-1.9.7-1.8 0-2.3-.4-1.9-1.6.4-1.3.2-1.3-1 .2-1 1.2-1.7 1.4-2.2.7-.3-.5-1.1-.8-1.6-.5-.5.4-.9.1-.9-.6s-.3-.9-.7-.6c-.3.4-1.3.1-2.1-.6-1.3-.9-1.4-.9-.8 0 .5 1 .1 1.1-1.6.4-1.7-.6-2.6-.4-3.6.8-1 1.3-1.2 1.3-1 .1.2-.9-.3-1.4-1.2-1.1-4.1.9-6.9.6-7.3-.8-.3-1.3.6-1.6 6-1.4 3.7.2 6.3-.2 6.3-.8 0-.6.6-.6 1.8-.1 1.9 1 4.2.5 4.2-1 0-.5-.9-.6-2-.3s-2 .2-2-.3-.7-.9-1.5-.9-1.5.5-1.5 1.1c0 .6-.5.4-1-.4s-1-1.1-1-.5c0 .5-.5.3-1-.5-1-1.7-12.7-2.4-13.6-.8z"/><path d="M46 71.8c0 .6-.6.9-1.4.6-1.8-.7-3 1.2-1.5 2.2.8.4.9.3.5-.4s-.2-1.2.3-1.2c.6 0 1.1.6 1.1 1.2 0 .7.5.5 1.1-.5.6-1 .8-2.1.5-2.4-.3-.4-.6-.1-.6.5zM105.7 72.7c-1.5 1.4-.6 2.3 2.4 2.3 2.1 0 2.8.4 2.3 1.2-.6 1-.4 1 .7.2.8-.7 4.2-1.1 7.7-1 3.4.1 6.2-.2 6.2-.6 0-.4.6-.5 1.4-.2.8.3 1.7.1 2-.4.3-.5-.2-1.1-1.2-1.4-3-.6-17.6-.1-19.6.7-1.4.6-1.7.5-1.2-.3.8-1.3.3-1.6-.7-.5zM47.5 74c-.3.5-.1 1 .4 1 .6 0 1.1-.5 1.1-1 0-.6-.2-1-.4-1-.3 0-.8.4-1.1 1zM195 83.5c-3.1 1.8-9.2 1.9-10.9.2-1.1-1-1.3-1-.7 0 .6 1-2.6 1.3-14.2 1.3-11.8 0-15.2.3-16.1 1.4-.9 1-1.3 7.3-1.3 20-.1 10.2-.4 18.6-.7 18.6-.8 0-.5 61.6.3 63.5.3.8.1 1.5-.5 1.5s-.6.7-.1 1.7 1 4.5 1.1 7.8c.1 4.4.6 6.3 1.9 7.2.9.7 2.3 1.8 3.1 2.5 1.9 1.6 4.1 1.9 4.1.6 0-.6-.7-.8-1.5-.4-.8.3-1.5.1-1.5-.4 0-1.4 3.4-1.2 4.9.2.8.7 1.1.8.8.3-.4-.7 6.8-1 21.8-1 15.3 0 22.1.3 21.5 1-.6.7-.2 1.1.9 1.1 1 0 1.7-.5 1.5-1.1-.5-1.2 13.5-1.3 15.5 0 .8.5 1.2.4.8-.1-.3-.5 4.3-.9 10.8-1 6.3 0 11.2.3 10.9.8-.3.5-1.4.6-2.5.3-1-.4-1.9-.2-1.9.3s1.7.8 3.8.7c2-.1 4.4.3 5.2.9 1.3 1 1.3.9.1-.6-.7-1-1.7-1.5-2.2-1.2-.5.3-.9 0-.9-.5 0-.6 1.1-1 2.4-.9 1.4.1 2.2.6 2 1-.3.4 0 .8.5.8.6 0 1.1-.5 1.1-1 0-.6.5-1 1.1-1 .6 0 .9.6.6 1.3-.3.7.3 1.3 1.4 1.3 1.3 0 1.5-.3.7-1.3s-.5-1.2 1.3-.9c1.3.2 3-.2 3.8-.8 1-.7 1.3-.7.8 0-.3.6 0 1.1.8 1.1s1.2-.4 1-.8c-.3-.4.2-2.2 1-4 .8-1.9 1.4-2.8 1.5-2 0 .8.3 1.1.6.8.4-.4.1-1.3-.6-2.2-.8-1-.9-1.5-.1-1.5.6 0 1.1-.4 1.1-1 0-.5-.7-.7-1.5-.4-1.1.5-1.3.2-.9-1 .3-.9 1.1-1.3 1.7-.9.6.4.7.1.2-.8-.5-.7-.9-3-1-5.1-.1-3 .1-3.5 1.2-2.6 1.1.8 1.2.7.7-.6-.3-.9-.9-1.6-1.3-1.6s-.7-8.9-.6-19.8c.1-12.3-.3-20.4-.9-21.7-2-3.6-3.3-4.4-5.7-3.8-1.3.4-16.3.8-33.4.9-35.4.2-33.5-.4-33.5 9.5.1 8.2.2 8.8 2.2 9.5 1 .3 1.6.8 1.4 1.2-.4.7 1.3.8 21.1 1.4 6.7.2 12.5.7 13 1.2.4.5.3.6-.4.2-.6-.3-1.4-.2-1.7.3-.7 1.1 1.3.9 3.2-.2.6-.5 1.2-.6 1.2-.2 0 .3.9.1 1.9-.5 1.8-.9 1.9-.7 1.5 2.3-.3 1.7-.6 4.8-.7 6.7l-.2 3.5h-5.2c-2.9 0-5.3.2-5.3.6 0 .3-3.4.7-7.7.8-5.4.2-7.9-.2-8.4-1.1-.7-1-.9-1-.9 0s-.5 1-2 .2-2-.8-2 .1c0 .8-.4.8-1.5-.1-.8-.7-1.5-.8-1.5-.3s-.9.9-2 .9-2-.3-2-.6-2.4-.5-5.3-.5c-4.1 0-5.1-.3-4.9-1.5.1-1-.3-.8-1.4.5-1.6 2-1.6 2-.9-.4.4-1.4.3-2.1-.2-1.8-1.1.7-1.1-4.3 0-6.1.5-.6.4-1.2-.1-1.2-1.5 0-.8-7 .8-8.1 1.3-.9 1.2-1-.2-.5-1 .3-1.8.1-1.8-.4 0-.6.6-1 1.3-1 .8 0 .9-.3.1-.8-1.4-.9-1.5-4.3-.1-6 .6-.8.6-1.2-.2-1.2-1.2 0-1-2.7.2-4.8.5-.6.4-1.2-.1-1.2-.4 0-.8-1.5-.8-3.4s.4-3.2.8-3c.5.3.8 0 .8-.5 0-.6-.4-1.1-.9-1.1s-.8-3.9-.7-8.8c.2-6.9.6-8.6 1.7-8.3.8.2 4.3.5 7.9.5 3.6.1 7.1.6 7.9 1 1 .6 1.2.5.7-.2-.5-.8.1-1.2 1.6-1.2 1.8 0 2 .2.8 1-.9.6-1 1-.3 1 .6 0 1.5-.5 1.8-1 .4-.6 1.2-.4 2.1.5.9.8 2 1.5 2.7 1.5.6 0 .2-.7-.9-1.5-1.7-1.3-1.5-1.4 2.6-1.2 2.6.1 5 .8 5.8 1.7 1.1 1.3 1.1 1.3.7-.1-.5-1.3.5-1.5 5.9-1.4 3.6 0 6.8.5 7.3.9.4.5.3.6-.4.2-.6-.3-1.4-.2-1.7.3-.7 1.1 1.3.9 3.2-.3.7-.4 1.5-.6 1.8-.3.9.9 1.3 5 .6 6.1-.3.6-.7 1.7-.9 2.5-.1.8-.8 1.8-1.5 2.2-1.1.7-1.1.9 0 .9.8 0 1.2.6 1 1.2-1.1 3.1 2.3 4.2 13.8 4.2 6.3.1 11.4.4 11.4.8 0 .6 4.1.2 6.8-.7.7-.3 1.2-2.1 1.2-4.5 0-2.5.5-4 1.3-4s.7-.4-.3-1c-1.3-.8-1.3-1-.1-1 1.1 0 .9-.4-.5-1.6-1.8-1.4-1.8-1.5.6-.9 1.8.5 2.1.4 1.1-.3-.8-.6-1.6-2.7-1.8-4.9-.8-9-.8-11.1.2-10.5.6.3.4-.1-.3-1-1-1.3-1-1.7.5-2.2 1-.4 1.3-1 .8-1.4-1.2-.8-1.5-7.3-.3-6.6.4.3.8 0 .8-.5 0-.6-.6-1.1-1.2-1.1-.9 0-.8-.4.2-1 .8-.5 1-1 .5-1-.6 0-1.2-1.7-1.3-3.7-.3-4.6-.8-5-3.2-3.5-2.6 1.6-5.3 1.6-4.4-.1.6-.9.5-.9-.8 0-.8.7-1.8 1-2.1.6-.8-.7-11.5-1.2-25.2-1.2-11.6.1-11.5.1-10.8 1.2.4.7-1.6.8-5.8.3-3.5-.4-8.6-.9-11.4-1-2.7-.2-5.7-.6-6.5-.9-.8-.4-2.6 0-4 .8zM270.7 88.1c.7.7 1.5 1 1.8.7.3-.3-.2-.9-1.2-1.2-1.4-.6-1.5-.5-.6.5zM143.5 90.9c-.3.5-.2 1.2.3 1.5.5.3.9-.1.9-.9 0-1.7-.3-1.9-1.2-.6z"/><path d="M271.6 99.3c.3 1 .9 1.5 1.2 1.2.3-.3 0-1.1-.7-1.8-1-.9-1.1-.8-.5.6zM142.9 102.7c-1.3 1.6-1.2 1.7.4.4.9-.7 1.7-1.5 1.7-1.7 0-.8-.8-.3-2.1 1.3zM271 104.1c0 .5.5.7 1 .4.6-.3 1-.8 1-1.1 0-.2-.4-.4-1-.4-.5 0-1 .5-1 1.1zM143.5 108.1c-.4.6-.5 1.2-.2 1.5.2.3.7-.2 1-1.1.7-1.7.1-2-.8-.4zM269.9 110.7c-1.3 1.6-1.2 1.7.4.4.9-.7 1.7-1.5 1.7-1.7 0-.8-.8-.3-2.1 1.3zM270.5 114c-.3.6.1.7.9.4 1.8-.7 2.1-1.4.7-1.4-.6 0-1.3.4-1.6 1zM58.6 115.2c.3.4 1.1.5 1.9.1 2.1-.7 1.9-1.2-.4-1-1.1 0-1.8.5-1.5.9zM78.9 115.7c-1.3 1.7-1.3 1.7.6.3 1.1-.8 2.2-1.6 2.4-1.7.2-.2 0-.3-.6-.3s-1.7.8-2.4 1.7zM90.5 115.1c-.4.6-.5 1.2-.2 1.5.2.3.7-.2 1-1.1.7-1.7.1-2-.8-.4zM93.5 116c.3.5.8 1 1.1 1 .2 0 .4-.5.4-1 0-.6-.5-1-1.1-1-.5 0-.7.4-.4 1zM97 116.1c0 .5.5.7 1 .4.6-.3 1-.8 1-1.1 0-.2-.4-.4-1-.4-.5 0-1 .5-1 1.1zM100 115.4c0 .2.7.7 1.6 1 .8.3 1.2.2.9-.4-.6-1-2.5-1.4-2.5-.6zM186.4 118.5c0 2.5 3.1 5.1 4.1 3.5.4-.6.1-.9-.6-.8-.6.2-1.4-.3-1.7-1.1-.3-.8 0-1.1.7-.7.7.4.9.2.5-.8-1-2.5-3-2.6-3-.1zM143 118.1c0 .5.5.7 1 .4.6-.3 1-.8 1-1.1 0-.2-.4-.4-1-.4-.5 0-1 .5-1 1.1zM190 117.4c0 .2.8 1 1.8 1.7 1.5 1.3 1.6 1.2.3-.4s-2.1-2.1-2.1-1.3zM194.6 117.8c-.3.5.1.9.9.9s1.2-.4.9-.9c-.3-.4-.7-.8-.9-.8-.2 0-.6.4-.9.8zM198.5 118c-.3.6.1.7.9.4 1.8-.7 2.1-1.4.7-1.4-.6 0-1.3.4-1.6 1zM214 118.1c0 .5.5.7 1 .4.6-.3 1-.8 1-1.1 0-.2-.4-.4-1-.4-.5 0-1 .5-1 1.1zM222.6 117.8c-.2.4.4.8 1.4.8 1 0 1.6-.4 1.4-.8-.3-.4-.9-.8-1.4-.8-.5 0-1.1.4-1.4.8zM227 117.9c0 .6.4 1.3 1 1.6.6.3.7-.1.4-.9-.7-1.8-1.4-2.1-1.4-.7zM56 120c0 .5.5 1 1.1 1 .5 0 .7-.5.4-1-.3-.6-.8-1-1.1-1-.2 0-.4.4-.4 1zM235 122c0 .5.5 1 1.1 1 .5 0 .7-.5.4-1-.3-.6-.8-1-1.1-1-.2 0-.4.4-.4 1zM186.7 126.7c-1 .9-.9 2.3.1 2.3.5 0 .9-.7.9-1.5 0-1.7-.1-1.8-1-.8zM186 131.4c0 .2.9.6 2 .9 1.1.3 1.8.1 1.4-.4-.5-.9-3.4-1.3-3.4-.5zM57 134c0 .5.5 1 1.1 1 .5 0 .7-.5.4-1-.3-.6-.8-1-1.1-1-.2 0-.4.4-.4 1zM121.5 133.7c.3.3-.2 1.1-1.1 1.7-1.3 1-1.3 1.2.4 1.2 1.9 0 2.4-1.9.9-3.1-.4-.3-.5-.2-.2.2zM124.6 135.7c-.6 1.4-.5 1.5.5.6.7-.7 1-1.5.7-1.8-.3-.3-.9.2-1.2 1.2zM137 136c-.8.5-1 1-.5 1 .6 0 1.7-.5 2.5-1s1.1-1 .5-1c-.5 0-1.7.5-2.5 1zM240 136c-1.2.7-1 .9.7.7 1.2 0 1.9-.5 1.7-.9-.6-1-.6-1-2.4.2zM245 136c0 .5.5 1 1.1 1 .5 0 .7-.5.4-1-.3-.6-.8-1-1.1-1-.2 0-.4.4-.4 1zM254.7 136.1c.7.9 1 1.9.6 2.2-.3.4-.1.7.5.7 1.7 0 1.5-1.6-.5-3.1-1.6-1.2-1.7-1.2-.6.2zM258 135.9c0 .5.7 1.2 1.6 1.5 1.4.5 1.5.4.4-.9-1.4-1.7-2-1.9-2-.6zM247.6 137.8c-.3.5.1.9.9.9s1.2-.4.9-.9c-.3-.4-.7-.8-.9-.8-.2 0-.6.4-.9.8zM142.6 144.2c.3.5 1 .6 1.5.3 1.3-.9 1.1-1.2-.6-1.2-.8 0-1.2.4-.9.9zM57 150c-.9.6-1 1-.3 1 .6 0 1.5-.5 1.8-1 .8-1.2.4-1.2-1.5 0zM142.6 153.6c-.5 1.4-.4 1.5.9.4 1.7-1.4 1.9-2 .6-2-.5 0-1.2.7-1.5 1.6zM57.6 155.3c.3 1 .9 1.5 1.2 1.2.3-.3 0-1.1-.7-1.8-1-.9-1.1-.8-.5.6zM58.9 159.7c-1.3 1.6-1.2 1.7.4.4.9-.7 1.7-1.5 1.7-1.7 0-.8-.8-.3-2.1 1.3zM187 159c-.9.6-1 1-.3 1 .6 0 1.5-.5 1.8-1 .8-1.2.4-1.2-1.5 0zM269.5 158.9c-.3.5-.2 1.2.3 1.5.5.3.9-.1.9-.9 0-1.7-.3-1.9-1.2-.6zM142 159.4c0 .2.8 1 1.8 1.7 1.5 1.3 1.6 1.2.3-.4s-2.1-2.1-2.1-1.3zM190 162c-.9.6-1 1-.3 1 .6 0 1.5-.5 1.8-1 .8-1.2.4-1.2-1.5 0zM82 162.9c0 .6.4 1.3 1 1.6.6.3.7-.1.4-.9-.7-1.8-1.4-2.1-1.4-.7zM86.6 163.2c.3.4 1.1.5 1.9.1 2.1-.7 1.9-1.2-.4-1-1.1 0-1.8.5-1.5.9zM91 162.7c0 .1.8.7 1.8 1.2 1.3.7 1.9.6 1.9-.2 0-.7-.9-1.3-1.9-1.3-1 0-1.8.1-1.8.3zM97.3 163.9c0 1.1.5 1.8.9 1.5.4-.3.5-1.1.1-1.9-.7-2.1-1.2-1.9-1 .4zM203 163.1c0 .5.5.7 1 .4.6-.3 1-.8 1-1.1 0-.2-.4-.4-1-.4-.5 0-1 .5-1 1.1zM269.4 163.1c-.3.6-.2 1.5.3 2s.9.1.9-1.1c0-2.3-.2-2.4-1.2-.9zM212.5 164c-.3.6.1.7.9.4 1.8-.7 2.1-1.4.7-1.4-.6 0-1.3.4-1.6 1zM222.1 164.4c-.8 1-.9 1.6-.1 2.1.6.4.9.1.8-.7-.2-.7.5-1.2 1.4-1.2 1 .1 1.5-.2 1.2-.7-.8-1.3-2-1.1-3.3.5zM227 164.1c0 .5.5.7 1 .4.6-.3 1-.8 1-1.1 0-.2-.4-.4-1-.4-.5 0-1 .5-1 1.1zM143.5 165.1c-.4.6-.5 1.2-.2 1.5.2.3.7-.2 1-1.1.7-1.7.1-2-.8-.4zM269.3 170c0 1.6.2 2.8.5 2.5.8-.8 1.1-5.5.3-5.5-.4 0-.8 1.3-.8 3zM188 170c-.8.5-1.2 1.2-.9 1.5.4.3 1.2-.1 1.9-1 1.4-1.7 1.1-1.9-1-.5zM144 172.5c-.7.9-1 1.8-.7 2.2.4.3.2 1.5-.4 2.7-1 2-.9 2 .5.2.9-1 1.3-2.3 1-2.8-.3-.5 0-1.5.6-2.3.7-.8 1-1.5.7-1.5-.2 0-1 .7-1.7 1.5zM269.6 176.2c.3.5 1 .6 1.5.3 1.3-.9 1.1-1.2-.6-1.2-.8 0-1.2.4-.9.9zM269.4 179.1c-.3.6-.2 1.5.3 2s.9.1.9-1.1c0-2.3-.2-2.4-1.2-.9zM270 184c.8.5 2 1 2.5 1 .6 0 .3-.5-.5-1s-1.9-1-2.5-1c-.5 0-.3.5.5 1zM142.8 187.7c.7.3 1.6.2 1.9-.1.4-.3-.2-.6-1.3-.5-1.1 0-1.4.3-.6.6zM269.5 190c-.3.5-.1 1 .4 1 .6 0 1.1-.5 1.1-1 0-.6-.2-1-.4-1-.3 0-.8.4-1.1 1zM142.8 199.7c.7.3 1.6.2 1.9-.1.4-.3-.2-.6-1.3-.5-1.1 0-1.4.3-.6.6zM267.5 206c-.3.5-.1 1 .4 1 .6 0 1.1-.5 1.1-1 0-.6-.2-1-.4-1-.3 0-.8.4-1.1 1zM165.1 209.3c.2.1 1.3.9 2.4 1.7 1.9 1.4 1.9 1.4.6-.3-.7-.9-1.8-1.7-2.4-1.7-.6 0-.8.1-.6.3zM171 209.4c0 .2.7.7 1.6 1 .8.3 1.2.2.9-.4-.6-1-2.5-1.4-2.5-.6zM187.5 210c-.3.5-.1 1 .4 1 .6 0 1.1-.5 1.1-1 0-.6-.2-1-.4-1-.3 0-.8.4-1.1 1zM190.5 210c-.3.6.1.7.9.4 1.8-.7 2.1-1.4.7-1.4-.6 0-1.3.4-1.6 1zM227.3 210.5c-.3.9-.3 1.8-.1 2.1.3.3.8-.4 1.1-1.6.6-2.3-.1-2.7-1-.5zM117.6 211.7c-.6 1.4-.5 1.5.5.6.7-.7 1-1.5.7-1.8-.3-.3-.9.2-1.2 1.2zM128.9 211.7c-1.3 1.6-1.2 1.7.4.4 1.6-1.3 2.1-2.1 1.3-2.1-.2 0-1 .8-1.7 1.7zM29.5 212c.3.5.8 1 1.1 1 .2 0 .4-.5.4-1 0-.6-.5-1-1.1-1-.5 0-.7.4-.4 1zM39.6 211.8c-.3.5.1.9.9.9s1.2-.4.9-.9c-.3-.4-.7-.8-.9-.8-.2 0-.6.4-.9.8zM65.6 212.6c-.5 1.4-.4 1.5.9.4 1.7-1.4 1.9-2 .6-2-.5 0-1.2.7-1.5 1.6zM73.6 211.8c-.3.5.1.9.9.9s1.2-.4.9-.9c-.3-.4-.7-.8-.9-.8-.2 0-.6.4-.9.8zM78 211.4c0 .2.7.7 1.6 1 .8.3 1.2.2.9-.4-.6-1-2.5-1.4-2.5-.6zM113 211.8c0 .5.7.9 1.5.9s1.2-.4.9-.9c-.3-.4-.9-.8-1.5-.8-.5 0-.9.4-.9.8z"/></svg>