<?xml version="1.0" standalone="no"?>
<!DOCTYPE svg PUBLIC "-//W3C//DTD SVG 20010904//EN"
        "http://www.w3.org/TR/2001/REC-SVG-20010904/DTD/svg10.dtd">
<svg version="1.0" xmlns="http://www.w3.org/2000/svg"
     width="263.000000pt" height="263.000000pt" viewBox="0 0 263.000000 263.000000"
     preserveAspectRatio="xMidYMid meet">
    <metadata>
        Created by potrace 1.11, written by Peter Selinger 2001-2013
    </metadata>
    <g transform="translate(0.000000,263.000000) scale(0.100000,-0.100000)"
       fill="#000000" stroke="none">
        <path d="M34 2053 c3 -8 6 -18 6 -22 0 -8 15 -11 73 -13 29 -2 36 -5 32 -17
-4 -10 0 -9 15 4 18 16 23 17 30 5 6 -9 10 -10 10 -3 0 6 12 11 26 10 18 -1
27 3 29 14 2 12 -3 15 -16 12 -10 -3 -16 -10 -13 -17 3 -6 0 -4 -8 5 -7 9 -18
14 -25 12 -6 -2 -22 2 -35 10 -13 8 -47 15 -76 15 -44 0 -52 -2 -48 -15z"/>
        <path d="M270 2029 c0 -4 16 -7 35 -7 19 0 35 3 35 7 0 3 -16 6 -35 7 -19 0
-35 -3 -35 -7z"/>
        <path d="M373 2025 c0 -8 4 -12 9 -9 5 3 6 10 3 15 -9 13 -12 11 -12 -6z"/>
        <path d="M934 2028 c-3 -4 -10 -6 -17 -4 -7 1 -9 1 -4 -1 4 -3 4 -10 1 -16 -5
-8 -3 -8 6 0 10 9 17 9 26 2 9 -7 19 -7 33 1 20 10 25 7 22 -15 -1 -5 6 -1 14
9 8 11 15 16 15 10 0 -5 17 -8 37 -7 21 1 46 2 55 2 10 1 15 7 12 14 -5 14
-192 18 -200 5z"/>
        <path d="M173 1999 c4 -11 -1 -15 -16 -13 -12 1 -22 3 -22 4 0 1 -15 3 -32 4
-32 2 -45 -8 -22 -16 8 -3 6 -9 -4 -20 -13 -12 -16 -45 -16 -194 0 -98 -1
-181 -1 -184 -8 -32 -10 -90 -10 -365 -1 -405 6 -514 31 -538 11 -10 19 -13
19 -7 0 7 6 8 18 2 9 -5 34 -8 55 -8 23 1 37 -3 37 -11 0 -6 4 -14 9 -17 5 -4
7 4 4 16 -4 19 -3 20 6 8 9 -12 12 -13 20 -1 7 11 9 11 14 0 3 -8 6 -9 6 -2 1
6 10 9 21 6 11 -3 17 -10 13 -17 -3 -6 0 -6 8 1 7 7 33 13 58 13 34 0 42 -3
31 -10 -12 -8 -11 -10 5 -7 11 1 25 6 31 9 11 7 60 5 101 -5 14 -4 20 -2 17 6
-3 9 9 11 41 9 25 -2 42 -8 39 -13 -3 -5 0 -8 8 -7 7 2 12 -3 10 -10 -2 -10 2
-10 20 0 13 7 27 11 31 10 5 -1 6 2 2 8 -9 15 38 13 54 -2 10 -11 11 -10 6 3
-5 13 2 14 50 9 31 -3 55 -2 55 3 0 5 7 4 15 -3 8 -7 15 -8 15 -3 0 6 24 9 58
7 77 -3 74 -3 68 -12 -3 -5 1 -9 8 -9 8 0 12 7 8 15 -3 9 -1 13 5 9 6 -4 13
-4 16 0 2 5 3 3 1 -2 -1 -6 5 -20 13 -30 13 -19 14 -19 9 7 -2 15 0 30 5 33 5
4 9 -2 9 -12 0 -15 2 -16 10 -3 5 8 10 11 10 6 0 -5 8 -2 17 5 11 10 14 10 9
2 -4 -8 -1 -13 8 -13 9 0 16 4 16 8 0 4 12 7 28 6 29 -1 65 23 56 37 -3 5 2
12 11 15 12 5 13 9 4 20 -9 11 -7 14 7 15 11 1 24 0 29 -1 6 -1 6 2 2 7 -5 4
-16 8 -24 8 -22 0 -25 55 -3 56 10 0 9 3 -5 9 -11 5 -15 9 -9 9 6 1 9 14 6 32
-4 25 -2 30 9 24 8 -5 5 1 -5 13 -19 22 -19 22 0 23 10 1 23 1 27 0 5 -1 6 3
2 8 -3 6 -12 8 -20 5 -11 -5 -14 4 -12 38 0 24 -3 49 -8 57 -6 11 -4 13 8 8
16 -6 16 -5 1 18 -15 24 -15 25 2 26 11 0 14 3 7 6 -16 6 -17 43 -1 43 6 0 3
7 -8 16 -18 14 -18 15 6 9 21 -5 22 -4 8 5 -21 13 -24 36 -5 43 10 4 10 6 0 6
-7 1 -13 13 -13 27 0 14 4 23 8 20 5 -3 9 1 9 9 0 8 -5 13 -10 12 -6 -1 -11
12 -12 28 -2 17 -4 32 -5 35 -1 3 -2 7 -2 10 1 12 -85 16 -131 5 -22 -4 -27
-3 -21 7 6 10 5 10 -7 1 -18 -15 -79 -14 -98 1 -12 9 -13 8 -7 -2 6 -10 3 -13
-10 -10 -11 2 -18 10 -16 17 1 7 -2 10 -8 6 -6 -3 -8 -11 -4 -16 3 -6 -73 -8
-206 -6 -145 2 -216 0 -226 -8 -11 -8 -16 -30 -16 -80 0 -40 -6 -73 -12 -77
-7 -5 -7 -8 2 -8 8 0 21 -9 30 -20 13 -16 30 -22 67 -23 36 -1 55 -8 67 -22
15 -19 17 -19 23 -2 4 9 12 17 17 17 6 0 8 -6 5 -12 -3 -8 4 -13 19 -13 21 0
22 2 9 11 -14 10 -14 12 0 18 8 3 15 2 15 -2 0 -4 23 -7 50 -8 28 0 50 3 50 7
0 9 41 0 58 -14 8 -6 17 -5 27 3 17 14 17 13 17 -47 0 -63 -14 -80 -69 -86
-27 -2 -133 -2 -238 0 -104 3 -200 5 -212 5 -16 0 -23 6 -23 20 0 10 4 17 8
14 4 -2 8 5 9 17 0 12 -1 16 -4 9 -3 -6 -9 -9 -14 -6 -6 3 -2 12 8 20 17 13
17 13 -2 14 -16 0 -17 2 -5 9 8 6 18 7 22 5 4 -3 5 1 2 9 -3 8 0 18 5 22 13 8
5 25 -12 25 -9 0 -9 -2 0 -8 8 -5 8 -12 -3 -26 -13 -18 -14 -17 -14 18 0 22 4
35 10 31 6 -3 7 1 4 9 -3 9 -11 13 -16 10 -6 -4 -5 2 1 14 6 12 19 26 29 31
21 13 7 14 -17 2 -13 -7 -17 -5 -17 10 0 11 5 18 11 15 6 -2 11 8 12 23 2 23
1 24 -7 6 -6 -15 -9 -7 -9 31 -1 27 5 56 12 63 10 11 10 13 0 7 -9 -5 -13 3
-13 28 0 30 3 34 20 31 12 -2 18 0 15 6 -4 5 -10 7 -15 4 -5 -3 -12 0 -16 6
-10 17 -11 130 0 136 5 4 6 1 2 -5 -4 -7 -3 -12 3 -12 5 0 12 -8 15 -17 2 -10
3 -4 1 14 l-3 32 53 -4 c29 -1 59 -6 67 -11 9 -5 8 -2 -2 11 -10 13 -11 16 -2
11 7 -4 39 -8 70 -7 40 0 52 -3 42 -9 -9 -6 -10 -10 -3 -10 6 0 15 5 18 10 3
6 14 10 23 10 15 0 15 -2 2 -10 -9 -6 -10 -10 -3 -10 6 0 14 4 17 8 4 7 160 7
204 1 14 -3 16 -19 2 -19 -5 0 -10 -5 -10 -12 0 -6 9 -3 20 7 16 14 20 15 20
4 0 -8 -6 -21 -12 -28 -11 -11 -10 -12 0 -6 11 6 12 3 3 -14 -9 -16 -9 -21 0
-21 7 0 6 -8 -4 -24 -14 -21 -14 -25 1 -41 9 -10 11 -15 5 -11 -7 4 -13 2 -13
-5 0 -7 10 -9 25 -7 17 4 29 0 35 -11 8 -14 10 -13 10 4 l1 20 9 -20 c5 -11 9
-15 9 -8 1 8 19 12 53 11 33 0 46 -3 37 -9 -9 -6 -10 -9 -2 -9 7 0 17 8 23 18
10 15 11 14 7 -5 -3 -13 -1 -23 4 -23 5 0 9 7 9 15 0 8 7 15 15 15 8 0 15 -4
15 -10 0 -5 5 -10 11 -10 5 0 8 4 5 9 -4 5 2 7 13 4 10 -3 22 0 25 6 4 5 14 7
22 4 13 -5 15 -1 10 15 -4 11 -2 23 3 26 5 4 8 15 6 26 -2 11 0 20 6 20 5 0 9
5 9 11 0 5 -4 8 -8 5 -5 -3 -9 2 -9 10 0 8 6 13 13 10 9 -3 9 2 -2 22 -9 19
-10 30 -2 39 6 7 6 13 2 13 -5 0 -10 20 -10 45 -1 35 2 45 15 46 9 1 5 4 -9 9
-19 6 -20 8 -6 9 14 1 16 4 7 14 -11 14 -5 27 11 27 5 0 6 -6 2 -12 -4 -7 -3
-9 1 -5 15 13 13 34 -2 33 -12 -1 -16 10 -17 42 -1 23 2 42 5 42 4 0 9 7 12
14 4 9 1 13 -6 10 -7 -2 -13 6 -13 21 -1 14 -5 32 -8 41 -6 15 -8 15 -24 2
-12 -11 -33 -14 -72 -11 -30 2 -71 5 -92 6 -20 1 -34 6 -30 11 3 5 -1 6 -9 1
-21 -13 -89 -14 -82 -1 5 8 3 8 -8 0 -16 -12 -118 -12 -137 0 -8 5 -12 3 -10
-6 2 -10 -21 -13 -104 -13 -60 -1 -108 2 -108 5 0 3 -10 6 -22 7 -11 1 -24 7
-28 13 -5 8 -9 7 -13 -4 -4 -9 -13 -13 -22 -10 -8 3 -15 2 -15 -3 0 -5 -31 -9
-70 -9 -38 0 -70 4 -70 9 0 5 -6 4 -14 -2 -11 -10 -17 -8 -26 6 -10 16 -11 16
-6 1 3 -10 1 -18 -4 -18 -6 0 -10 5 -10 10 0 6 -6 9 -12 8 -7 -2 -12 4 -10 12
3 12 1 13 -9 3 -16 -16 -33 -17 -24 -3 8 13 -17 8 -28 -5 -4 -6 -14 -2 -24 10
-10 13 -14 15 -10 4z m507 -859 c0 -5 -2 -10 -4 -10 -3 0 -8 5 -11 10 -3 6 -1
10 4 10 6 0 11 -4 11 -10z m7 -485 c-2 -5 -10 -10 -17 -10 -7 0 -15 5 -17 10
-2 6 6 11 17 11 11 0 19 -5 17 -11z"/>
        <path d="M1130 1991 c0 -6 4 -13 10 -16 6 -3 7 1 4 9 -7 18 -14 21 -14 7z"/>
        <path d="M1827 1926 c-14 -11 -63 -14 -210 -15 -215 -1 -223 -4 -219 -67 2
-20 -3 -43 -10 -52 -11 -13 -11 -14 0 -8 10 6 12 -20 11 -128 0 -75 -4 -136
-7 -136 -7 0 -7 -315 1 -627 5 -198 9 -213 62 -213 15 0 24 -4 20 -10 -3 -6
-1 -10 4 -10 6 0 11 4 11 8 0 4 24 8 54 8 33 -1 52 -5 49 -11 -3 -5 0 -4 8 3
20 19 38 15 34 -8 -2 -11 1 -20 7 -20 5 0 8 7 5 15 -4 8 -2 17 3 20 6 4 10 1
10 -4 0 -6 5 -11 11 -11 5 0 8 4 5 8 -2 4 15 8 39 8 27 0 41 -4 38 -11 -3 -5
0 -4 8 3 20 19 38 15 34 -8 -2 -11 1 -20 7 -20 5 0 8 7 5 15 -4 8 -2 17 3 20
6 4 10 1 10 -4 0 -6 5 -11 11 -11 5 0 8 4 5 8 -2 4 40 8 95 8 54 0 99 -4 99
-8 0 -4 8 -8 18 -8 13 0 14 2 3 9 -9 6 -5 9 13 9 14 0 26 -4 26 -9 0 -5 -5 -9
-12 -9 -6 0 -8 -3 -4 -7 4 -5 13 -1 19 8 9 12 30 15 95 15 45 0 82 -4 82 -8 0
-5 8 -8 18 -8 13 0 14 2 3 9 -9 6 6 8 40 7 34 0 59 -7 67 -16 12 -13 13 -13 9
1 -5 14 2 16 41 15 26 -2 57 1 69 5 12 4 23 5 26 1 2 -4 3 -2 1 4 -1 6 2 17 7
25 8 12 11 12 20 -1 9 -13 10 -12 5 3 -3 10 -6 21 -6 23 0 3 -6 2 -12 -2 -10
-5 -10 -4 -1 6 6 7 9 20 5 29 -5 14 -4 14 13 1 17 -14 17 -14 4 8 -8 12 -18
22 -23 22 -4 0 -3 6 3 14 6 7 8 22 4 31 -5 14 -3 16 7 10 10 -6 11 -4 4 6 -12
19 -12 279 0 272 5 -4 6 0 1 7 -11 18 -15 121 -4 115 6 -4 5 18 -1 35 -1 3 -2
8 -1 13 0 4 -4 7 -9 7 -6 0 -10 5 -10 11 0 5 6 7 13 4 6 -4 1 2 -13 13 -24 20
-100 35 -100 20 0 -5 -7 -8 -16 -8 -9 0 -12 5 -8 13 5 8 2 8 -9 -2 -14 -11
-20 -11 -34 0 -12 10 -15 11 -9 1 6 -10 -42 -12 -253 -9 -232 2 -263 1 -276
-13 -8 -9 -12 -20 -8 -23 3 -4 2 -7 -3 -7 -5 0 -8 -29 -6 -64 3 -56 7 -67 29
-81 14 -10 44 -19 67 -21 64 -6 74 -9 96 -29 11 -10 20 -15 20 -10 0 4 -8 14
-17 21 -17 12 -17 13 3 14 12 0 26 -10 33 -22 9 -19 10 -20 6 -3 -4 17 1 20
30 22 19 1 35 -3 35 -9 0 -7 5 -6 15 2 8 6 19 9 24 6 5 -4 13 -1 17 5 5 8 13
4 26 -12 11 -13 17 -19 14 -13 -3 6 1 11 9 11 8 0 12 -4 9 -9 -3 -4 2 -5 11
-2 13 5 15 2 10 -17 -3 -13 -7 -37 -9 -54 -2 -16 -4 -34 -5 -38 0 -4 -22 -8
-48 -8 -27 0 -95 -1 -153 -3 -58 -2 -110 1 -115 5 -6 4 -16 5 -22 1 -6 -4 -42
-5 -80 -2 -56 4 -68 8 -65 22 1 9 -2 19 -8 23 -5 3 -7 0 -4 -8 3 -8 1 -18 -5
-22 -6 -3 -11 0 -12 7 -6 68 -5 95 4 106 6 8 6 12 -2 12 -17 0 -13 28 7 40 16
11 16 11 0 6 -10 -3 -18 -1 -18 4 0 6 6 10 13 10 8 0 9 3 1 8 -12 8 -13 61 -1
80 5 7 4 12 -2 12 -5 0 -9 15 -8 34 1 19 5 32 10 29 4 -2 7 1 7 6 0 6 -4 11
-8 11 -15 0 -9 34 7 50 9 8 12 12 7 8 -18 -14 -29 -8 -16 7 8 9 9 15 2 15 -6
0 -10 15 -9 34 1 19 5 32 10 29 4 -2 7 0 7 6 0 5 -6 11 -12 14 -10 3 -10 9 0
26 7 12 9 27 5 34 -5 9 -3 9 8 2 8 -6 32 -10 54 -9 22 1 46 -4 54 -10 10 -7
13 -8 8 0 -4 7 8 11 33 12 26 1 40 -3 40 -11 0 -8 3 -9 8 -1 9 14 43 14 35 0
-5 -8 -3 -8 8 0 18 14 72 17 64 4 -3 -6 -1 -10 4 -10 6 0 11 4 11 9 0 5 13 9
30 9 16 -1 27 -5 24 -10 -3 -4 0 -8 5 -8 6 0 11 4 11 8 0 4 16 8 35 9 19 0 35
-3 35 -8 0 -5 10 -8 21 -6 17 1 23 -4 26 -25 2 -14 -1 -29 -7 -33 -6 -4 -7 1
-3 12 3 10 3 15 -1 11 -12 -10 -14 -58 -3 -58 5 0 3 -7 -4 -17 -8 -9 -13 -18
-12 -20 8 -14 36 -35 51 -38 9 -2 19 -4 21 -4 2 -1 -4 -10 -13 -20 -13 -14
-14 -21 -5 -27 7 -4 10 -3 6 3 -4 6 0 16 8 23 8 7 12 16 9 21 -3 5 -1 9 5 9
17 0 24 -22 10 -32 -12 -8 -11 -9 1 -5 8 2 14 12 14 21 -1 9 2 16 7 16 5 0 9
-4 9 -10 0 -5 8 -10 18 -10 14 0 15 2 2 10 -11 8 -9 9 13 8 15 -1 27 -6 27
-10 0 -4 5 -8 11 -8 5 0 8 4 5 8 -2 4 11 8 29 8 18 0 31 -4 28 -9 -3 -5 4 -6
17 -2 16 5 20 4 15 -5 -5 -8 0 -7 14 2 12 7 21 18 21 25 0 6 5 13 12 15 7 3
11 22 10 46 -2 35 2 44 20 51 18 6 19 9 5 14 -10 4 -17 2 -17 -3 0 -6 -5 -10
-10 -10 -7 0 -6 8 2 23 6 12 13 31 15 42 3 17 1 18 -8 5 -9 -12 -10 -11 -6 8
3 12 2 22 -2 22 -4 0 -6 28 -4 63 2 34 4 69 4 77 1 8 3 22 6 30 11 27 11 40 2
34 -5 -3 -9 13 -9 34 0 39 -22 64 -35 42 -4 -6 -13 -10 -21 -10 -8 0 -13 3
-11 8 9 14 -372 15 -389 1 -6 -5 -39 -7 -74 -3 -34 3 -81 7 -104 8 -22 1 -52
5 -66 9 -16 4 -32 2 -43 -7z"/>
        <path d="M1296 1828 c3 -5 10 -6 15 -3 13 9 11 12 -6 12 -8 0 -12 -4 -9 -9z"/>
        <path d="M2580 1792 c0 -5 7 -9 15 -9 8 0 15 4 15 9 0 4 -7 8 -15 8 -8 0 -15
-4 -15 -8z"/>
        <path d="M2575 1730 c-3 -5 -1 -10 4 -10 6 0 11 5 11 10 0 6 -2 10 -4 10 -3 0
-8 -4 -11 -10z"/>
        <path d="M1280 1692 c0 -6 5 -14 10 -17 6 -4 7 -11 4 -17 -4 -7 -2 -8 5 -4 9
6 9 12 -1 24 -7 10 -14 19 -15 21 -2 2 -3 -1 -3 -7z"/>
        <path d="M2570 1655 c0 -7 30 -13 34 -7 3 4 -4 9 -15 9 -10 1 -19 0 -19 -2z"/>
        <path d="M570 1616 c0 -2 7 -7 16 -10 8 -3 12 -2 9 4 -6 10 -25 14 -25 6z"/>
        <path d="M610 1612 c0 -5 7 -9 15 -9 8 0 12 4 9 9 -3 4 -9 8 -15 8 -5 0 -9 -4
-9 -8z"/>
        <path d="M735 1610 c-3 -5 -2 -10 4 -10 5 0 13 5 16 10 3 6 2 10 -4 10 -5 0
-13 -4 -16 -10z"/>
        <path d="M816 1597 c3 -10 9 -15 12 -12 3 3 0 11 -7 18 -10 9 -11 8 -5 -6z"/>
        <path d="M676 1588 c3 -5 10 -6 15 -3 13 9 11 12 -6 12 -8 0 -12 -4 -9 -9z"/>
        <path d="M876 1588 c3 -5 10 -6 15 -3 13 9 11 12 -6 12 -8 0 -12 -4 -9 -9z"/>
        <path d="M1755 1577 c-12 -9 -14 -16 -7 -21 6 -3 16 3 22 14 13 24 10 25 -15
7z"/>
        <path d="M1908 1583 c7 -3 16 -2 19 1 4 3 -2 6 -13 5 -11 0 -14 -3 -6 -6z"/>
        <path d="M2011 1583 c-1 -17 16 -25 25 -12 4 7 3 9 -4 5 -5 -3 -13 0 -15 6 -4
9 -6 10 -6 1z"/>
        <path d="M2076 1573 c-6 -14 -5 -15 5 -6 7 7 10 15 7 18 -3 3 -9 -2 -12 -12z"/>
        <path d="M1835 1570 c3 -5 8 -10 11 -10 2 0 4 5 4 10 0 6 -5 10 -11 10 -5 0
-7 -4 -4 -10z"/>
        <path d="M1955 1570 c-3 -5 -1 -10 4 -10 6 0 11 5 11 10 0 6 -2 10 -4 10 -3 0
-8 -4 -11 -10z"/>
        <path d="M2225 1570 c-3 -6 1 -7 9 -4 18 7 21 14 7 14 -6 0 -13 -4 -16 -10z"/>
        <path d="M412 1548 c2 -6 10 -13 16 -14 7 -1 8 0 2 3 -5 2 -8 9 -4 14 3 5 0 9
-6 9 -7 0 -10 -5 -8 -12z"/>
        <path d="M1750 1510 c-12 -7 -10 -9 7 -7 12 0 19 5 17 9 -6 10 -6 10 -24 -2z"/>
        <path d="M2580 1512 c0 -5 7 -9 15 -9 8 0 12 4 9 9 -3 4 -9 8 -15 8 -5 0 -9
-4 -9 -8z"/>
        <path d="M1277 1483 c-11 -11 -8 -20 7 -20 8 0 12 6 9 14 -6 15 -7 15 -16 6z"/>
        <path d="M425 1430 c3 -5 8 -10 11 -10 2 0 4 5 4 10 0 6 -5 10 -11 10 -5 0 -7
-4 -4 -10z"/>
        <path d="M1235 1430 c-3 -5 -1 -10 4 -10 6 0 11 5 11 10 0 6 -2 10 -4 10 -3 0
-8 -4 -11 -10z"/>
        <path d="M1213 1405 c0 -8 4 -12 9 -9 5 3 6 10 3 15 -9 13 -12 11 -12 -6z"/>
        <path d="M1010 1407 c0 -2 6 -10 14 -16 11 -9 16 -9 22 1 4 7 4 10 -1 6 -4 -4
-14 -3 -22 3 -7 6 -13 9 -13 6z"/>
        <path d="M1750 1399 c0 -5 5 -7 10 -4 6 3 10 8 10 11 0 2 -4 4 -10 4 -5 0 -10
-5 -10 -11z"/>
        <path d="M2441 1403 c-1 -17 16 -25 25 -12 4 7 3 9 -4 5 -5 -3 -13 0 -15 6 -4
9 -6 10 -6 1z"/>
        <path d="M431 1377 c-13 -21 -12 -21 5 -5 10 10 16 20 13 22 -3 3 -11 -5 -18
-17z"/>
        <path d="M2390 1390 c0 -5 5 -10 11 -10 5 0 7 5 4 10 -3 6 -8 10 -11 10 -2 0
-4 -4 -4 -10z"/>
        <path d="M1750 1350 c-9 -6 -10 -10 -3 -10 6 0 15 5 18 10 8 12 4 12 -15 0z"/>
        <path d="M420 1336 c0 -2 7 -7 16 -10 8 -3 12 -2 9 4 -6 10 -25 14 -25 6z"/>
        <path d="M1748 1313 c7 -3 16 -2 19 1 4 3 -2 6 -13 5 -11 0 -14 -3 -6 -6z"/>
        <path d="M1749 1273 c-13 -16 -12 -17 4 -4 16 13 21 21 13 21 -2 0 -10 -8 -17
-17z"/>
        <path d="M1750 1230 c-9 -6 -10 -10 -3 -10 6 0 15 5 18 10 8 12 4 12 -15 0z"/>
        <path d="M2575 1170 c-3 -5 -1 -10 4 -10 6 0 11 5 11 10 0 6 -2 10 -4 10 -3 0
-8 -4 -11 -10z"/>
        <path d="M595 1141 c-3 -5 -2 -12 3 -15 5 -3 9 1 9 9 0 17 -3 19 -12 6z"/>
        <path d="M790 1130 c0 -5 5 -10 10 -10 6 0 10 5 10 10 0 6 -4 10 -10 10 -5 0
-10 -4 -10 -10z"/>
        <path d="M855 1130 c-3 -5 -2 -10 4 -10 5 0 13 5 16 10 3 6 2 10 -4 10 -5 0
-13 -4 -16 -10z"/>
        <path d="M1290 1130 c0 -5 5 -10 11 -10 5 0 7 5 4 10 -3 6 -8 10 -11 10 -2 0
-4 -4 -4 -10z"/>
        <path d="M1936 1132 c-3 -4 4 -9 15 -9 23 -2 25 3 4 10 -8 4 -16 3 -19 -1z"/>
        <path d="M2155 1121 c-3 -5 -2 -12 3 -15 5 -3 9 1 9 9 0 17 -3 19 -12 6z"/>
        <path d="M636 1108 c3 -5 10 -6 15 -3 13 9 11 12 -6 12 -8 0 -12 -4 -9 -9z"/>
        <path d="M2226 1088 c3 -5 10 -6 15 -3 13 9 11 12 -6 12 -8 0 -12 -4 -9 -9z"/>
        <path d="M1743 1077 c0 -8 6 -14 14 -14 9 0 10 4 2 14 -6 7 -12 13 -14 13 -1
0 -2 -6 -2 -13z"/>
        <path d="M2575 1050 c-3 -5 -1 -10 4 -10 6 0 11 5 11 10 0 6 -2 10 -4 10 -3 0
-8 -4 -11 -10z"/>
        <path d="M2575 970 c-3 -5 -1 -10 4 -10 6 0 11 5 11 10 0 6 -2 10 -4 10 -3 0
-8 -4 -11 -10z"/>
        <path d="M1315 910 c-3 -5 -1 -10 4 -10 6 0 11 5 11 10 0 6 -2 10 -4 10 -3 0
-8 -4 -11 -10z"/>
        <path d="M1266 708 c3 -5 10 -6 15 -3 13 9 11 12 -6 12 -8 0 -12 -4 -9 -9z"/>
        <path d="M1245 679 c-11 -16 -1 -19 13 -3 7 8 8 14 3 14 -5 0 -13 -5 -16 -11z"/>
        <path d="M1556 658 c3 -5 10 -6 15 -3 13 9 11 12 -6 12 -8 0 -12 -4 -9 -9z"/>
        <path d="M1714 654 c1 -8 4 -15 7 -16 2 -2 3 -1 2 1 -2 2 2 9 7 16 7 8 5 12
-4 12 -8 0 -13 -6 -12 -13z"/>
        <path d="M1874 654 c1 -8 4 -15 7 -16 2 -2 3 -1 2 1 -2 2 2 9 7 16 7 8 5 12
-4 12 -8 0 -13 -6 -12 -13z"/>
        <path d="M1915 660 c3 -5 8 -10 11 -10 2 0 4 5 4 10 0 6 -5 10 -11 10 -5 0 -7
-4 -4 -10z"/>
        <path d="M2146 658 c3 -4 9 -8 15 -8 5 0 9 4 9 8 0 5 -7 9 -15 9 -8 0 -12 -4
-9 -9z"/>
        <path d="M930 655 c0 -5 5 -17 10 -25 5 -8 10 -10 10 -5 0 6 -5 17 -10 25 -5
8 -10 11 -10 5z"/>
        <path d="M950 656 c0 -2 7 -7 16 -10 8 -3 12 -2 9 4 -6 10 -25 14 -25 6z"/>
        <path d="M1175 650 c-3 -6 1 -7 9 -4 18 7 21 14 7 14 -6 0 -13 -4 -16 -10z"/>
        <path d="M1210 649 c0 -5 5 -7 10 -4 6 3 10 8 10 11 0 2 -4 4 -10 4 -5 0 -10
-5 -10 -11z"/>
        <path d="M2000 656 c0 -2 7 -7 16 -10 8 -3 12 -2 9 4 -6 10 -25 14 -25 6z"/>
        <path d="M2240 656 c0 -2 7 -7 16 -10 8 -3 12 -2 9 4 -6 10 -25 14 -25 6z"/>
        <path d="M2335 650 c-2 -3 9 -6 25 -5 15 0 26 3 24 7 -5 8 -44 6 -49 -2z"/>
        <path d="M350 639 c0 -5 -6 -7 -12 -3 -7 4 -9 3 -5 -1 13 -15 36 -14 30 1 -6
17 -13 18 -13 3z"/>
        <path d="M590 641 c0 -6 4 -13 10 -16 6 -3 7 1 4 9 -7 18 -14 21 -14 7z"/>
        <path d="M270 632 c0 -5 7 -9 15 -9 8 0 12 4 9 9 -3 4 -9 8 -15 8 -5 0 -9 -4
-9 -8z"/>
        <path d="M490 636 c0 -2 7 -7 16 -10 8 -3 12 -2 9 4 -6 10 -25 14 -25 6z"/>
        <path d="M730 636 c0 -2 7 -7 16 -10 8 -3 12 -2 9 4 -6 10 -25 14 -25 6z"/>
        <path d="M875 630 c3 -5 8 -10 11 -10 2 0 4 5 4 10 0 6 -5 10 -11 10 -5 0 -7
-4 -4 -10z"/>
    </g>
</svg>
