<?xml version="1.0" encoding="UTF-8" standalone="no"?>
<svg
   xmlns:dc="http://purl.org/dc/elements/1.1/"
   xmlns:cc="http://creativecommons.org/ns#"
   xmlns:rdf="http://www.w3.org/1999/02/22-rdf-syntax-ns#"
   xmlns:svg="http://www.w3.org/2000/svg"
   xmlns="http://www.w3.org/2000/svg"
   xmlns:sodipodi="http://sodipodi.sourceforge.net/DTD/sodipodi-0.dtd"
   xmlns:inkscape="http://www.inkscape.org/namespaces/inkscape"
   version="1.1"
   x="0px"
   y="0px"
   viewBox="0 0 100 100"
   enable-background="new 0 0 100 100"
   xml:space="preserve"
   id="svg2"
   inkscape:version="0.91 r13725"
   sodipodi:docname="dice.svg"
   width="100"
   height="100"><metadata
     id="metadata14"><rdf:RDF><cc:Work
         rdf:about=""><dc:format>image/svg+xml</dc:format><dc:type
           rdf:resource="http://purl.org/dc/dcmitype/StillImage" /><dc:title></dc:title></cc:Work></rdf:RDF></metadata><defs
     id="defs12" /><sodipodi:namedview
     pagecolor="#ffffff"
     bordercolor="#666666"
     borderopacity="1"
     objecttolerance="10"
     gridtolerance="10"
     guidetolerance="10"
     inkscape:pageopacity="0"
     inkscape:pageshadow="2"
     inkscape:window-width="640"
     inkscape:window-height="480"
     id="namedview10"
     showgrid="false"
     inkscape:zoom="1.888"
     inkscape:cx="50"
     inkscape:cy="62.5"
     inkscape:window-x="0"
     inkscape:window-y="0"
     inkscape:window-maximized="0"
     inkscape:current-layer="svg2" /><path
     d="M 94.26238,49.079513 65.700861,32.52076 c -1.335225,-0.770659 -2.799805,-1.141189 -4.246846,-1.141189 -2.946702,0 -5.822148,1.527066 -7.395257,4.241364 L 37.506583,64.183551 c -2.350345,4.050618 -0.955924,9.295046 3.097983,11.638813 L 69.163893,92.38002 c 1.335224,0.77285 2.799805,1.14009 4.246846,1.14009 2.945605,0 5.821051,-1.52487 7.39416,-4.23917 L 97.360363,60.720519 C 99.709612,56.667708 98.314095,51.428762 94.26238,49.079513 Z M 57.157838,46.8947 c -0.844107,-3.163758 1.040334,-6.411926 4.204092,-7.252745 0.51085,-0.13703 1.024988,-0.200612 1.530356,-0.200612 2.622213,-0.0022 5.018601,1.752893 5.726774,4.403609 0.840818,3.169239 -1.040335,6.416311 -4.204093,7.253841 -0.511945,0.135934 -1.026083,0.204997 -1.529259,0.204997 -2.624406,-0.0055 -5.02189,-1.755085 -5.72787,-4.40909 z m 4.547216,17.081661 c -0.844107,-3.161565 1.040335,-6.409734 4.202997,-7.251649 0.511945,-0.134838 1.024987,-0.201708 1.530355,-0.201708 2.622214,0 5.017505,1.753989 5.724582,4.406897 0.841915,3.16595 -1.040335,6.414119 -4.202996,7.251649 -0.51085,0.134838 -1.024988,0.206093 -1.530356,0.206093 -2.622214,-0.0055 -5.019697,-1.757277 -5.724582,-4.411282 z M 73.505016,85.26321 c -0.511946,0.135935 -1.026084,0.201709 -1.530356,0.201709 -2.621117,0 -5.016408,-1.753989 -5.723485,-4.404705 -0.844108,-3.163758 1.038142,-6.413022 4.2019,-7.251648 0.511945,-0.137031 1.024987,-0.202805 1.530355,-0.202805 2.62331,0 5.018601,1.752893 5.725678,4.405801 0.841915,3.159373 -1.042527,6.409734 -4.204092,7.251648 z M 40.850125,42.600716 c 1.240947,-2.139867 3.613217,-3.207608 5.920809,-2.895179 l 3.603351,-6.218987 c 1.038142,-1.792358 2.490665,-3.266805 4.19313,-4.353182 L 50.624229,14.316546 C 49.418361,9.789062 44.728633,7.073667 40.200052,8.271861 l -31.8995792,8.4915 c -4.5274843,1.206963 -7.2461673,5.896692 -6.041396,10.425272 l 8.4904032,31.89958 c 1.204771,4.529676 5.895596,7.245071 10.421984,6.043588 l 12.842488,-3.41699 7.268092,-12.538829 C 39.865698,47.32662 39.61137,44.739486 40.850125,42.600716 Z M 12.419058,32.974604 c -2.8315958,-1.642172 -3.797386,-5.272929 -2.155214,-8.105621 1.641076,-2.8305 5.268545,-3.796291 8.101237,-2.156311 2.832693,1.643269 3.798483,5.269641 2.155214,8.102333 -1.641076,2.833789 -5.268544,3.799579 -8.101237,2.159599 z m 14.5318,21.999408 c -1.642173,2.832692 -5.269641,3.797386 -8.102334,2.155214 -2.831596,-1.63998 -3.797386,-5.269641 -2.157406,-8.101237 1.643268,-2.832692 5.269641,-3.798482 8.102333,-2.157406 2.833789,1.642172 3.799579,5.271833 2.157407,8.103429 z m 8.863125,-15.293688 c -1.642172,2.832692 -5.26964,3.798482 -8.101236,2.15631 -2.831596,-1.63998 -3.79629,-5.269641 -2.156311,-8.101237 1.641076,-2.833788 5.269641,-3.798482 8.102333,-2.158503 2.8305,1.643269 3.797387,5.270737 2.155214,8.10343 z m 0.764082,-13.139571 c -2.832692,-1.637787 -3.797386,-5.270737 -2.15631,-8.101237 1.642172,-2.834884 5.269641,-3.799578 8.101237,-2.158502 2.832692,1.642172 3.797386,5.272929 2.155214,8.103429 -1.63998,2.834885 -5.267449,3.798483 -8.100141,2.15631 z"
     id="path4"
     inkscape:connector-curvature="0" /></svg>