<?xml version="1.0" encoding="UTF-8" standalone="no"?>
<svg
   xmlns:dc="http://purl.org/dc/elements/1.1/"
   xmlns:cc="http://creativecommons.org/ns#"
   xmlns:rdf="http://www.w3.org/1999/02/22-rdf-syntax-ns#"
   xmlns:svg="http://www.w3.org/2000/svg"
   xmlns="http://www.w3.org/2000/svg"
   xmlns:sodipodi="http://sodipodi.sourceforge.net/DTD/sodipodi-0.dtd"
   xmlns:inkscape="http://www.inkscape.org/namespaces/inkscape"
   version="1.1"
   x="0px"
   y="0px"
   viewBox="0 0 100 100"
   enable-background="new 0 0 100 100"
   xml:space="preserve"
   style="zoom: 1;"
   visibility="visible"
   id="svg4833"
   inkscape:version="0.91 r13725"
   sodipodi:docname="drum.svg"><metadata
     id="metadata4851"><rdf:RDF><cc:Work
         rdf:about=""><dc:format>image/svg+xml</dc:format><dc:type
           rdf:resource="http://purl.org/dc/dcmitype/StillImage" /></cc:Work></rdf:RDF></metadata><defs
     id="defs4849" /><sodipodi:namedview
     pagecolor="#ffffff"
     bordercolor="#666666"
     borderopacity="1"
     objecttolerance="10"
     gridtolerance="10"
     guidetolerance="10"
     inkscape:pageopacity="0"
     inkscape:pageshadow="2"
     inkscape:window-width="640"
     inkscape:window-height="480"
     id="namedview4847"
     showgrid="false"
     inkscape:zoom="2.36"
     inkscape:cx="50"
     inkscape:cy="50"
     inkscape:window-x="0"
     inkscape:window-y="0"
     inkscape:window-maximized="0"
     inkscape:current-layer="svg4833" /><g
     id="g4835"><path
       d="M23.217,38.665 c0.427,0.151 0.699,0.525 0.732,0.971 h52.167 c0.022,-0.445 0.285,-0.823 0.706,-0.984 c0.551,-0.213 0.945,-0.751 0.945,-1.375 c0,-0.625 -0.395,-1.162 -0.945,-1.375 c-0.439,-0.17 -0.715,-0.572 -0.715,-1.042 V13.057 c-17.252,-2.038 -36.145,-2.009 -52.146,0.064 v21.714 c0,0.481 -0.291,0.891 -0.744,1.051 c-0.572,0.204 -0.985,0.75 -0.985,1.391 C22.232,37.915 22.645,38.463 23.217,38.665  z "
       fill-rule="evenodd"
       clip-rule="evenodd"
       id="path4837" /><path
       d="m 76.822,63.404 c -0.439,-0.169 -0.715,-0.57 -0.715,-1.042 l 0,-20.64 -52.146,0 0,20.616 c 0,0.481 -0.291,0.892 -0.744,1.053 -0.572,0.201 -0.985,0.75 -0.985,1.389 l 0,0 c 0,0.639 0.413,1.188 0.985,1.389 0.425,0.151 0.697,0.523 0.731,0.967 l 52.168,0 c 0.023,-0.443 0.287,-0.819 0.706,-0.98 0.551,-0.213 0.945,-0.75 0.945,-1.375 l 0,0 c 0.001,-0.627 -0.394,-1.164 -0.945,-1.377 z"
       id="path4839"
       inkscape:connector-curvature="0"
       style="clip-rule:evenodd;fill-rule:evenodd"
       sodipodi:nodetypes="csccscccccccccc" /><path
       d="M24.556,11.64 L24.556,11.64 c15.712,-1.958 34.084,-1.981 50.963,-0.049 c0.38,-0.229 0.588,-0.465 0.588,-0.709 c0,-0.893 -2.693,-1.704 -7.084,-2.307 V6.49 c0,-0.983 -0.801,-1.784 -1.785,-1.784 h-6.701 c-0.984,0 -1.785,0.8 -1.785,1.784 v1.216 c0.004,0 0.008,0 0.012,0 C56.023,7.58 53.074,7.511 50,7.511 c-14.419,0 -26.108,1.509 -26.108,3.371 C23.892,11.143 24.122,11.396 24.556,11.64  z M67.952,8.436 c-0.01,-0.001 -0.02,-0.003 -0.029,-0.004 C67.933,8.433 67.942,8.435 67.952,8.436  z M61.663,7.867 c-0.018,-0.001 -0.035,-0.002 -0.052,-0.004 C61.628,7.864 61.646,7.865 61.663,7.867  z M63.05,7.963 c-0.037,-0.002 -0.074,-0.005 -0.111,-0.008 C62.976,7.958 63.013,7.96 63.05,7.963  z "
       fill-rule="evenodd"
       clip-rule="evenodd"
       id="path4841" /><path
       d="M76.107,69.222 H23.961 v19.539 c17.289,3.341 34.827,3.366 52.146,0.08 V69.222  z "
       fill-rule="evenodd"
       clip-rule="evenodd"
       id="path4843" /><path
       d="M76.173,90.245 c-8.606,1.619 -17.271,2.438 -25.926,2.438 c-8.807,0 -17.605,-0.842 -26.345,-2.518 c-0.106,0.498 -0.359,0.938 -0.757,1.3 c-0.164,0.149 -0.25,0.304 -0.25,0.459 c0,1.86 12.136,3.37 27.105,3.37 c14.97,0 27.104,-1.51 27.104,-3.37 c0,-0.148 -0.076,-0.294 -0.225,-0.436 C76.51,91.133 76.276,90.715 76.173,90.245  z "
       fill-rule="evenodd"
       clip-rule="evenodd"
       id="path4845" /></g></svg>