<?xml version="1.0" encoding="UTF-8" standalone="no"?>
<svg
   xmlns:dc="http://purl.org/dc/elements/1.1/"
   xmlns:cc="http://creativecommons.org/ns#"
   xmlns:rdf="http://www.w3.org/1999/02/22-rdf-syntax-ns#"
   xmlns:svg="http://www.w3.org/2000/svg"
   xmlns="http://www.w3.org/2000/svg"
   xmlns:sodipodi="http://sodipodi.sourceforge.net/DTD/sodipodi-0.dtd"
   xmlns:inkscape="http://www.inkscape.org/namespaces/inkscape"
   version="1.1"
   x="0px"
   y="0px"
   viewBox="0 0 100 100"
   xml:space="preserve"
   id="svg2"
   inkscape:version="0.91 r13725"
   sodipodi:docname="gears.svg"
   width="100"
   height="100"><metadata
     id="metadata14"><rdf:RDF><cc:Work
         rdf:about=""><dc:format>image/svg+xml</dc:format><dc:type
           rdf:resource="http://purl.org/dc/dcmitype/StillImage" /><dc:title></dc:title></cc:Work></rdf:RDF></metadata><defs
     id="defs12" /><sodipodi:namedview
     pagecolor="#ffffff"
     bordercolor="#666666"
     borderopacity="1"
     objecttolerance="10"
     gridtolerance="10"
     guidetolerance="10"
     inkscape:pageopacity="0"
     inkscape:pageshadow="2"
     inkscape:window-width="640"
     inkscape:window-height="480"
     id="namedview10"
     showgrid="false"
     inkscape:zoom="1.888"
     inkscape:cx="50"
     inkscape:cy="62.5"
     inkscape:window-x="0"
     inkscape:window-y="0"
     inkscape:window-maximized="0"
     inkscape:current-layer="svg2" /><path
     d="m 80,4 c -5.5,0 -10,4.5 -10,10 0,3.7 2,6.9 5,8.7 L 75,44 55,44 55,22.7 C 58,21 60,17.7 60,14 60,8.5 55.5,4 50,4 44.5,4 40,8.5 40,14 c 0,3.7 2,6.9 5,8.7 L 45,44 25,44 25,22.7 C 28,21 30,17.7 30,14 30,8.5 25.5,4 20,4 14.5,4 10,8.5 10,14 c 0,3.7 2,6.9 5,8.7 l 0,52.7 c -3,1.7 -5,5 -5,8.7 0,5.5 4.5,10 10,10 5.5,0 10,-4.5 10,-10 0,-3.7 -2,-6.9 -5,-8.7 l 0,-21.4 20,0 0,21.3 c -3,1.7 -5,5 -5,8.7 0,5.5 4.5,10 10,10 5.5,0 10,-4.5 10,-10 0,-3.7 -2,-6.9 -5,-8.7 L 55,54 85,54 85,22.7 C 88,21 90,17.7 90,14 90,8.5 85.5,4 80,4 Z"
     id="path4"
     inkscape:connector-curvature="0" /></svg>