<?xml version="1.0" encoding="UTF-8" standalone="no"?>
<svg
   xmlns:dc="http://purl.org/dc/elements/1.1/"
   xmlns:cc="http://creativecommons.org/ns#"
   xmlns:rdf="http://www.w3.org/1999/02/22-rdf-syntax-ns#"
   xmlns:svg="http://www.w3.org/2000/svg"
   xmlns="http://www.w3.org/2000/svg"
   xmlns:sodipodi="http://sodipodi.sourceforge.net/DTD/sodipodi-0.dtd"
   xmlns:inkscape="http://www.inkscape.org/namespaces/inkscape"
   version="1.1"
   x="0px"
   y="0px"
   viewBox="0 0 100 100"
   id="svg2"
   inkscape:version="0.91 r13725"
   sodipodi:docname="shield2.svg"
   width="100"
   height="100">
  <metadata
     id="metadata16">
    <rdf:RDF>
      <cc:Work
         rdf:about="">
        <dc:format>image/svg+xml</dc:format>
        <dc:type
           rdf:resource="http://purl.org/dc/dcmitype/StillImage" />
        <dc:title></dc:title>
      </cc:Work>
    </rdf:RDF>
  </metadata>
  <defs
     id="defs14" />
  <sodipodi:namedview
     pagecolor="#ffffff"
     bordercolor="#666666"
     borderopacity="1"
     objecttolerance="10"
     gridtolerance="10"
     guidetolerance="10"
     inkscape:pageopacity="0"
     inkscape:pageshadow="2"
     inkscape:window-width="640"
     inkscape:window-height="480"
     id="namedview12"
     showgrid="false"
     inkscape:zoom="1.888"
     inkscape:cx="50"
     inkscape:cy="62.5"
     inkscape:window-x="0"
     inkscape:window-y="0"
     inkscape:window-maximized="0"
     inkscape:current-layer="svg2" />
  <g
     transform="translate(0,-953.36218)"
     id="g4">
    <path
       style="color:#000000;text-indent:0;text-transform:none;direction:ltr;block-progression:tb;baseline-shift:baseline;display:inline;overflow:visible;visibility:visible;fill:#000000;fill-opacity:1;stroke:none;marker:none;enable-background:accumulate"
       d="m 50.093748,956.36435 c 0.47274,0.011 0.90503,0.15631 1.34375,0.375 l 35,19 c 0.946866,0.51694 1.570717,1.57749 1.5625,2.65625 0,22.7732 -4.742973,37.5614 -11.8125,47.9688 -7.069527,10.4073 -16.29404,16.2377 -24.5625,21.5312 -0.96237,0.6201 -2.28763,0.6201 -3.25,0 -8.26843,-5.2934 -17.492,-11.124 -24.5625,-21.5312 -7.0705,-10.4073 -11.8125,-25.1955 -11.8125,-47.9688 -0.008,-1.07876 0.61563,-2.13931 1.5625,-2.65625 l 35,-19 c 0.54532,-0.26258 1.05851,-0.38597 1.53125,-0.375 z m -0.09375,6.4375 -31.90625,17.3125 c 0.10377,8.68897 0.926,16.00108 2.28125,22.24995 l 29.625,0 0,39.4376 c 7.72459,-4.9669 15.33937,-10.1573 21.21875,-18.8125 3.563477,-5.246 6.510809,-11.8861 8.40625,-20.6251 l -29.625,0 0,-39.56245 z"
       visibility="visible"
       display="inline"
       overflow="visible"
       id="path6"
       inkscape:connector-curvature="0" />
  </g>
</svg>
