<?xml version="1.0" encoding="UTF-8" standalone="no"?>
<svg
   xmlns:dc="http://purl.org/dc/elements/1.1/"
   xmlns:cc="http://creativecommons.org/ns#"
   xmlns:rdf="http://www.w3.org/1999/02/22-rdf-syntax-ns#"
   xmlns:svg="http://www.w3.org/2000/svg"
   xmlns="http://www.w3.org/2000/svg"
   xmlns:sodipodi="http://sodipodi.sourceforge.net/DTD/sodipodi-0.dtd"
   xmlns:inkscape="http://www.inkscape.org/namespaces/inkscape"
   version="1.1"
   x="0px"
   y="0px"
   viewBox="0 0 112.5 79.832998"
   enable-background="new 0 0 112 79.333"
   xml:space="preserve"
   id="svg3757"
   sodipodi:docname="truck2.svg"
   inkscape:version="0.92.2 5c3e80d, 2017-08-06"
   width="112.5"
   height="79.833"><metadata
     id="metadata3763"><rdf:RDF><cc:Work
         rdf:about=""><dc:format>image/svg+xml</dc:format><dc:type
           rdf:resource="http://purl.org/dc/dcmitype/StillImage" /><dc:title></dc:title></cc:Work></rdf:RDF></metadata><defs
     id="defs3761" /><sodipodi:namedview
     pagecolor="#ffffff"
     bordercolor="#666666"
     borderopacity="1"
     objecttolerance="10"
     gridtolerance="10"
     guidetolerance="10"
     inkscape:pageopacity="0"
     inkscape:pageshadow="2"
     inkscape:window-width="1587"
     inkscape:window-height="931"
     id="namedview3759"
     showgrid="false"
     inkscape:zoom="4.6941373"
     inkscape:cx="45.631723"
     inkscape:cy="45.186785"
     inkscape:window-x="18"
     inkscape:window-y="12"
     inkscape:window-maximized="0"
     inkscape:current-layer="layer4"
     inkscape:pagecheckerboard="true" /><g
     inkscape:groupmode="layer"
     id="layer1"
     inkscape:label="Tractor"
     style="display:none"><path
       d="m 111.991,38.169 c -0.016,-0.57 -0.188,-1.131 -0.508,-1.609 L 94.241,10.69 C 93.673,9.845 92.716,9.333 91.694,9.333 H 79.333 68.394 68.39 c -1.687,0 -3.058,1.371 -3.058,3.062 v 49.881 c 0,1.686 1.371,3.057 3.062,3.057 h 6.271 0.002 c 0,7.732 6.268,14 14,14 7.731,0 13.998,-6.268 14,-14 h 6.271 c 1.688,0 3.062,-1.371 3.062,-3.061 V 38.257 c -0.001,-0.029 -0.007,-0.059 -0.009,-0.088 z M 79.333,37.333 V 18.665 h 11.809 l 12.445,18.668 z m 9.332,35 c -3.858,0 -7,-3.141 -7,-7 0,-3.859 3.142,-7 7,-7 3.859,0 7,3.141 7,7 0,3.859 -3.141,7 -7,7 z"
       id="path3751"
       inkscape:connector-curvature="0"
       sodipodi:nodetypes="cccsccssssccscsscccccccsssss" /><path
       sodipodi:nodetypes="cccsccssssccscsscccccccsssss"
       inkscape:connector-curvature="0"
       id="path3898"
       d="m 111.991,38.169 c -0.016,-0.57 -0.188,-1.131 -0.508,-1.609 L 94.241,10.69 C 93.673,9.845 92.716,9.333 91.694,9.333 H 79.333 68.394 68.39 c -1.687,0 -3.058,1.371 -3.058,3.062 v 49.881 c 0,1.686 1.371,3.057 3.062,3.057 h 6.271 0.002 c 0,7.732 6.268,14 14,14 7.731,0 13.998,-6.268 14,-14 h 6.271 c 1.688,0 3.062,-1.371 3.062,-3.061 V 38.257 c -0.001,-0.029 -0.007,-0.059 -0.009,-0.088 z M 79.333,37.333 V 18.665 h 11.809 l 12.445,18.668 z m 9.332,35 c -3.858,0 -7,-3.141 -7,-7 0,-3.859 3.142,-7 7,-7 3.859,0 7,3.141 7,7 0,3.859 -3.141,7 -7,7 z" /></g><g
     inkscape:groupmode="layer"
     id="layer3"
     inkscape:label="Tractor Outline"
     style="display:inline"><path
       style="display:inline;fill:none;fill-opacity:1;stroke:#000000;stroke-width:3;stroke-miterlimit:4;stroke-dasharray:none;stroke-opacity:1"
       d="m 111.991,38.169 c -0.016,-0.57 -0.188,-1.131 -0.508,-1.609 L 94.241,10.69 C 93.673,9.845 92.716,9.333 91.694,9.333 H 79.333 68.394 68.39 c -1.687,0 -3.058,1.371 -3.058,3.062 v 49.881 c 0,1.686 1.371,3.057 3.062,3.057 h 6.271 0.002 c 0,7.732 6.268,14 14,14 7.731,0 13.998,-6.268 14,-14 h 6.271 c 1.688,0 3.062,-1.371 3.062,-3.061 V 38.257 c -0.001,-0.029 -0.007,-0.059 -0.009,-0.088 z"
       id="path70"
       inkscape:connector-curvature="0"
       sodipodi:nodetypes="cccsccssssccscsscc" /></g><g
     inkscape:groupmode="layer"
     id="layer2"
     inkscape:label="Trailer"
     style="display:inline"><g
       id="g3846"
       transform="translate(-26.388595,9.6363892)"><path
         id="path3829"
         d="m 82.989595,-9.6363892 h -52.537 c -2.245,0 -4.064,1.819 -4.064,4.064 V 51.631611 c 0,2.244 1.819,4.064 4.063,4.064 h 9.935 c 0,7.732 6.268,14 14,14 7.732,0 14,-6.268 14,-14 h 14.603 c 2.244,0 4.063,-1.82 4.063,-4.064 V -5.5733892 c 0.001,-2.244 -1.817,-4.063 -4.063,-4.063 z m -28.602,72.3330002 c -3.858,0 -7,-3.141 -7,-7 0,-3.859 3.142,-7 7,-7 3.859,0 7,3.141 7,7 0,3.859 -3.141,7 -7,7 z"
         inkscape:connector-curvature="0"
         sodipodi:nodetypes="ssssscscsscssssss" /></g></g><g
     inkscape:groupmode="layer"
     id="layer4"
     inkscape:label="Trailer Outline"
     style="display:none"><g
       style="display:inline;fill:none;fill-opacity:1;stroke:#000000;stroke-width:3;stroke-miterlimit:4;stroke-dasharray:none;stroke-opacity:1"
       transform="translate(-26.388595,9.6363892)"
       id="g4584"><path
         sodipodi:nodetypes="ssssscscsscs"
         inkscape:connector-curvature="0"
         d="m 82.989595,-9.6363892 h -52.537 c -2.245,0 -4.064,1.819 -4.064,4.064 V 51.631611 c 0,2.244 1.819,4.064 4.063,4.064 h 9.935 c 0,7.732 6.268,14 14,14 7.732,0 14,-6.268 14,-14 h 14.603 c 2.244,0 4.063,-1.82 4.063,-4.064 V -5.5733892 c 0.001,-2.244 -1.817,-4.063 -4.063,-4.063 z"
         id="path4582"
         style="fill:none;fill-opacity:1;stroke:#000000;stroke-width:3;stroke-miterlimit:4;stroke-dasharray:none;stroke-opacity:1" /></g></g></svg>